<?xml version="1.0" encoding="UTF-8" standalone="no"?>
<svg width="217px" height="26px" viewBox="0 0 217 26" version="1.1" xmlns="http://www.w3.org/2000/svg" xmlns:xlink="http://www.w3.org/1999/xlink" xmlns:sketch="http://www.bohemiancoding.com/sketch/ns">
    <!-- Generator: Sketch 3.4.3 (16044) - http://www.bohemiancoding.com/sketch -->
    <title>Homepage</title>
    <desc>Created with Sketch.</desc>
    <defs></defs>
    <g id="Keaton-2" stroke="none" stroke-width="1" fill="none" fill-rule="evenodd" sketch:type="MSPage">
        <g id="Homepage" sketch:type="MSArtboardGroup" transform="translate(-404.000000, -99.000000)" fill="#FFFFFF">
            <g id="RemoteAcademy-+-Homepage" sketch:type="MSLayerGroup" transform="translate(392.000000, 85.000000)">
                <path d="M12.52,34 L12.52,14.12 L20.892,14.12 C21.750671,14.12 22.5439964,14.3019982 23.272,14.666 C24.0000036,15.0300018 24.6253307,15.5059971 25.148,16.094 C25.6706693,16.6820029 26.0766652,17.3493296 26.366,18.096 C26.6553348,18.8426704 26.8,19.5986628 26.8,20.364 C26.8,21.0920036 26.6926677,21.78733 26.478,22.45 C26.2633323,23.11267 25.960002,23.7099973 25.568,24.242 C25.175998,24.7740027 24.709336,25.2219982 24.168,25.586 C23.626664,25.9500018 23.0200034,26.1973327 22.348,26.328 L27.248,34 L25.036,34 L20.332,26.664 L14.452,26.664 L14.452,34 L12.52,34 Z M14.452,24.928 L20.976,24.928 C21.5546696,24.928 22.0819976,24.8020013 22.558,24.55 C23.0340024,24.2979987 23.4399983,23.9573355 23.776,23.528 C24.1120017,23.0986645 24.3733324,22.613336 24.56,22.072 C24.7466676,21.530664 24.84,20.9613363 24.84,20.364 C24.84,19.7666637 24.7326677,19.1926694 24.518,18.642 C24.3033323,18.0913306 24.0140018,17.6106687 23.65,17.2 C23.2859982,16.7893313 22.8566691,16.4626679 22.362,16.22 C21.8673309,15.9773321 21.349336,15.856 20.808,15.856 L14.452,15.856 L14.452,24.928 Z M37.408,34.28 C36.3439947,34.28 35.3640045,34.0793353 34.468,33.678 C33.5719955,33.2766647 32.7973366,32.7260035 32.144,32.026 C31.4906634,31.3259965 30.9820018,30.5186712 30.618,29.604 C30.2539982,28.6893288 30.072,27.7093386 30.072,26.664 C30.072,25.6373282 30.2539982,24.6713379 30.618,23.766 C30.9820018,22.8606621 31.4906634,22.0673367 32.144,21.386 C32.7973366,20.7046633 33.5673289,20.1633353 34.454,19.762 C35.3406711,19.3606647 36.3159947,19.16 37.38,19.16 C38.4440053,19.16 39.4193289,19.3606647 40.306,19.762 C41.1926711,20.1633353 41.9533302,20.7093299 42.588,21.4 C43.2226698,22.0906701 43.7173316,22.8839955 44.072,23.78 C44.4266684,24.6760045 44.604,25.627995 44.604,26.636 C44.604,26.7853341 44.5993334,26.9346659 44.59,27.084 C44.5806666,27.2333341 44.5666668,27.3359997 44.548,27.392 L32.088,27.392 C32.1440003,28.1760039 32.3259985,28.89933 32.634,29.562 C32.9420015,30.22467 33.3339976,30.7986642 33.81,31.284 C34.2860024,31.7693358 34.8366635,32.147332 35.462,32.418 C36.0873365,32.688668 36.7546631,32.824 37.464,32.824 C37.9493358,32.824 38.425331,32.7586673 38.892,32.628 C39.358669,32.4973327 39.787998,32.3200011 40.18,32.096 C40.572002,31.8719989 40.9219985,31.5966683 41.23,31.27 C41.5380015,30.9433317 41.7759992,30.584002 41.944,30.192 L43.596,30.64 C43.3719989,31.181336 43.0546687,31.6713311 42.644,32.11 C42.2333313,32.5486689 41.757336,32.9313317 41.216,33.258 C40.674664,33.5846683 40.0773366,33.8366658 39.424,34.014 C38.7706634,34.1913342 38.0986701,34.28 37.408,34.28 L37.408,34.28 Z M42.784,25.936 C42.7279997,25.1519961 42.5460015,24.4380032 42.238,23.794 C41.9299985,23.1499968 41.5380024,22.594669 41.062,22.128 C40.5859976,21.661331 40.0306698,21.2973346 39.396,21.036 C38.7613302,20.7746654 38.0893369,20.644 37.38,20.644 C36.6706631,20.644 35.9986698,20.7746654 35.364,21.036 C34.7293302,21.2973346 34.1740024,21.661331 33.698,22.128 C33.2219976,22.594669 32.8393348,23.1546634 32.55,23.808 C32.2606652,24.4613366 32.0880003,25.1706628 32.032,25.936 L42.784,25.936 Z M69.66,34 L67.756,34 L67.756,25.852 C67.756,24.1533248 67.4900027,22.9026707 66.958,22.1 C66.4259973,21.2973293 65.6186721,20.896 64.536,20.896 C63.9759972,20.896 63.4486691,20.9986656 62.954,21.204 C62.4593309,21.4093344 62.0020021,21.6986648 61.582,22.072 C61.1619979,22.4453352 60.7933349,22.8886641 60.476,23.402 C60.1586651,23.9153359 59.9160008,24.4799969 59.748,25.096 L59.748,34 L57.844,34 L57.844,25.852 C57.844,24.1159913 57.5826693,22.8560039 57.06,22.072 C56.5373307,21.2879961 55.7346721,20.896 54.652,20.896 C53.5506612,20.896 52.570671,21.2786628 51.712,22.044 C50.853329,22.8093372 50.2373352,23.8173271 49.864,25.068 L49.864,34 L47.96,34 L47.96,19.412 L49.696,19.412 L49.696,22.716 C50.2933363,21.5959944 51.0773285,20.7233365 52.048,20.098 C53.0186715,19.4726635 54.0919941,19.16 55.268,19.16 C56.5000062,19.16 57.4893296,19.5053299 58.236,20.196 C58.9826704,20.8866701 59.4306659,21.7919944 59.58,22.912 C60.9426735,20.4106542 62.827988,19.16 65.236,19.16 C66.0386707,19.16 66.7246638,19.3093318 67.294,19.608 C67.8633362,19.9066682 68.3206649,20.3313306 68.666,20.882 C69.0113351,21.4326694 69.2633325,22.0953295 69.422,22.87 C69.5806675,23.6446705 69.66,24.5079952 69.66,25.46 L69.66,34 Z M80.408,34.28 C79.3439947,34.28 78.3686711,34.0793353 77.482,33.678 C76.5953289,33.2766647 75.8300032,32.7306701 75.186,32.04 C74.5419968,31.3493299 74.0426684,30.5466712 73.688,29.632 C73.3333316,28.7173288 73.156,27.756005 73.156,26.748 C73.156,25.7213282 73.3379982,24.7506712 73.702,23.836 C74.0660018,22.9213288 74.5699968,22.1186701 75.214,21.428 C75.8580032,20.7373299 76.6233289,20.1866687 77.51,19.776 C78.3966711,19.3653313 79.3626614,19.16 80.408,19.16 C81.4533386,19.16 82.4193289,19.3653313 83.306,19.776 C84.1926711,20.1866687 84.9579968,20.7373299 85.602,21.428 C86.2460032,22.1186701 86.7499982,22.9213288 87.114,23.836 C87.4780018,24.7506712 87.66,25.7213282 87.66,26.748 C87.66,27.756005 87.4780018,28.7173288 87.114,29.632 C86.7499982,30.5466712 86.2460032,31.3493299 85.602,32.04 C84.9579968,32.7306701 84.1926711,33.2766647 83.306,33.678 C82.4193289,34.0793353 81.4533386,34.28 80.408,34.28 L80.408,34.28 Z M75.116,26.776 C75.116,27.5973374 75.251332,28.3579965 75.522,29.058 C75.792668,29.7580035 76.1659976,30.3739973 76.642,30.906 C77.1180024,31.4380027 77.6779968,31.8533318 78.322,32.152 C78.9660032,32.4506682 79.6519964,32.6 80.38,32.6 C81.1080036,32.6 81.7939968,32.4460015 82.438,32.138 C83.0820032,31.8299985 83.6466642,31.4100027 84.132,30.878 C84.6173358,30.3459973 84.9999986,29.7253369 85.28,29.016 C85.5600014,28.3066631 85.7,27.5413374 85.7,26.72 C85.7,25.9173293 85.5600014,25.1566703 85.28,24.438 C84.9999986,23.7193297 84.6173358,23.0940027 84.132,22.562 C83.6466642,22.0299973 83.0866698,21.6100015 82.452,21.302 C81.8173302,20.9939985 81.1360036,20.84 80.408,20.84 C79.6799964,20.84 78.9940032,20.9939985 78.35,21.302 C77.7059968,21.6100015 77.1460024,22.034664 76.67,22.576 C76.1939976,23.117336 75.8160014,23.7473297 75.536,24.466 C75.2559986,25.1846703 75.116,25.9546626 75.116,26.776 L75.116,26.776 Z M98.1,33.3 C97.9879994,33.3560003 97.8246677,33.4306662 97.61,33.524 C97.3953323,33.6173338 97.1480014,33.7106662 96.868,33.804 C96.5879986,33.8973338 96.2706684,33.981333 95.916,34.056 C95.5613316,34.130667 95.188002,34.168 94.796,34.168 C94.3853313,34.168 93.9933352,34.1120006 93.62,34 C93.2466648,33.8879994 92.9200014,33.7153345 92.64,33.482 C92.3599986,33.2486655 92.1360008,32.9546684 91.968,32.6 C91.7999992,32.2453316 91.716,31.834669 91.716,31.368 L91.716,20.924 L89.7,20.924 L89.7,19.412 L91.716,19.412 L91.716,14.484 L93.62,14.484 L93.62,19.412 L96.98,19.412 L96.98,20.924 L93.62,20.924 L93.62,30.836 C93.6573335,31.377336 93.8439983,31.7739987 94.18,32.026 C94.5160017,32.2780013 94.917331,32.404 95.384,32.404 C95.925336,32.404 96.4013313,32.3153342 96.812,32.138 C97.2226687,31.9606658 97.4839994,31.834667 97.596,31.76 L98.1,33.3 Z M107.224,34.28 C106.159995,34.28 105.180004,34.0793353 104.284,33.678 C103.387996,33.2766647 102.613337,32.7260035 101.96,32.026 C101.306663,31.3259965 100.798002,30.5186712 100.434,29.604 C100.069998,28.6893288 99.888,27.7093386 99.888,26.664 C99.888,25.6373282 100.069998,24.6713379 100.434,23.766 C100.798002,22.8606621 101.306663,22.0673367 101.96,21.386 C102.613337,20.7046633 103.383329,20.1633353 104.27,19.762 C105.156671,19.3606647 106.131995,19.16 107.196,19.16 C108.260005,19.16 109.235329,19.3606647 110.122,19.762 C111.008671,20.1633353 111.76933,20.7093299 112.404,21.4 C113.03867,22.0906701 113.533332,22.8839955 113.888,23.78 C114.242668,24.6760045 114.42,25.627995 114.42,26.636 C114.42,26.7853341 114.415333,26.9346659 114.406,27.084 C114.396667,27.2333341 114.382667,27.3359997 114.364,27.392 L101.904,27.392 C101.96,28.1760039 102.141998,28.89933 102.45,29.562 C102.758002,30.22467 103.149998,30.7986642 103.626,31.284 C104.102002,31.7693358 104.652664,32.147332 105.278,32.418 C105.903336,32.688668 106.570663,32.824 107.28,32.824 C107.765336,32.824 108.241331,32.7586673 108.708,32.628 C109.174669,32.4973327 109.603998,32.3200011 109.996,32.096 C110.388002,31.8719989 110.737998,31.5966683 111.046,31.27 C111.354002,30.9433317 111.591999,30.584002 111.76,30.192 L113.412,30.64 C113.187999,31.181336 112.870669,31.6713311 112.46,32.11 C112.049331,32.5486689 111.573336,32.9313317 111.032,33.258 C110.490664,33.5846683 109.893337,33.8366658 109.24,34.014 C108.586663,34.1913342 107.91467,34.28 107.224,34.28 L107.224,34.28 Z M112.6,25.936 C112.544,25.1519961 112.362002,24.4380032 112.054,23.794 C111.745998,23.1499968 111.354002,22.594669 110.878,22.128 C110.401998,21.661331 109.84667,21.2973346 109.212,21.036 C108.57733,20.7746654 107.905337,20.644 107.196,20.644 C106.486663,20.644 105.81467,20.7746654 105.18,21.036 C104.54533,21.2973346 103.990002,21.661331 103.514,22.128 C103.037998,22.594669 102.655335,23.1546634 102.366,23.808 C102.076665,24.4613366 101.904,25.1706628 101.848,25.936 L112.6,25.936 Z M116.208,34 L120.492,14.96 L127.828,14.96 L132.112,34 L128.248,34 L127.492,30.556 L120.828,30.556 L120.072,34 L116.208,34 Z M123.488,18.152 L121.556,27.196 L126.764,27.196 L124.832,18.152 L123.488,18.152 Z M139.92,19.664 C140.890672,19.664 142.131992,19.8133318 143.644,20.112 L144.4,20.28 L144.288,23.248 C142.813326,23.0986659 141.721337,23.024 141.012,23.024 C139.723994,23.024 138.870002,23.2993306 138.45,23.85 C138.029998,24.4006694 137.82,25.4413257 137.82,26.972 C137.82,28.5026743 138.029998,29.5526638 138.45,30.122 C138.870002,30.6913362 139.733327,30.976 141.04,30.976 L144.288,30.752 L144.4,33.748 C142.402657,34.140002 140.881339,34.336 139.836,34.336 C137.76399,34.336 136.275338,33.7526725 135.37,32.586 C134.464662,31.4193275 134.012,29.5480129 134.012,26.972 C134.012,24.3959871 134.478662,22.5340057 135.412,21.386 C136.345338,20.2379943 137.84799,19.664 139.92,19.664 L139.92,19.664 Z M158.396,24.368 L158.396,30.192 C158.433334,30.6400022 158.507999,30.9526658 158.62,31.13 C158.732001,31.3073342 158.965332,31.433333 159.32,31.508 L159.208,34.336 C158.255995,34.336 157.495336,34.2706673 156.926,34.14 C156.356664,34.0093327 155.78267,33.748002 155.204,33.356 C153.859993,34.0093366 152.488007,34.336 151.088,34.336 C148.194652,34.336 146.748,32.8053486 146.748,29.744 C146.748,28.2506592 147.149329,27.1913365 147.952,26.566 C148.754671,25.9406635 149.986658,25.5720006 151.648,25.46 L154.644,25.236 L154.644,24.368 C154.644,23.7893304 154.513335,23.3926677 154.252,23.178 C153.990665,22.9633323 153.57067,22.856 152.992,22.856 L147.728,23.08 L147.616,20.476 C149.613343,19.934664 151.512658,19.664 153.314,19.664 C155.115342,19.664 156.412663,20.0373296 157.206,20.784 C157.999337,21.5306704 158.396,22.7253251 158.396,24.368 L158.396,24.368 Z M152.096,28.064 C151.050661,28.1573338 150.528,28.7173282 150.528,29.744 C150.528,30.7706718 150.985329,31.284 151.9,31.284 C152.609337,31.284 153.383996,31.1720011 154.224,30.948 L154.644,30.836 L154.644,27.84 L152.096,28.064 Z M174.38,14.4 L174.38,34 L170.656,34 L170.656,33.412 C169.349327,34.0280031 168.220005,34.336 167.268,34.336 C165.233323,34.336 163.814671,33.7480059 163.012,32.572 C162.209329,31.3959941 161.808,29.5340127 161.808,26.986 C161.808,24.4379873 162.288662,22.5806725 163.25,21.414 C164.211338,20.2473275 165.662657,19.664 167.604,19.664 C168.201336,19.664 169.031995,19.7573324 170.096,19.944 L170.628,20.056 L170.628,14.4 L174.38,14.4 Z M170.236,30.64 L170.628,30.556 L170.628,23.192 C169.601328,23.0053324 168.686671,22.912 167.884,22.912 C166.371992,22.912 165.616,24.2559866 165.616,26.944 C165.616,28.4000073 165.783998,29.4359969 166.12,30.052 C166.456002,30.6680031 167.011329,30.976 167.786,30.976 C168.560671,30.976 169.377329,30.8640011 170.236,30.64 L170.236,30.64 Z M182.118,30.458 C182.556669,30.8406686 183.186663,31.032 184.008,31.032 C185.744009,31.032 187.293327,30.9760006 188.656,30.864 L189.44,30.78 L189.496,33.552 C187.349323,34.0746693 185.408009,34.336 183.672,34.336 C181.562656,34.336 180.032005,33.7760056 179.08,32.656 C178.127995,31.5359944 177.652,29.7160126 177.652,27.196 C177.652,22.1746416 179.714646,19.664 183.84,19.664 C187.909354,19.664 189.944,21.7733122 189.944,25.992 L189.664,28.596 L181.432,28.596 C181.450667,29.454671 181.679331,30.0753314 182.118,30.458 L182.118,30.458 Z M186.248,25.74 C186.248,24.6199944 186.070668,23.8406689 185.716,23.402 C185.361332,22.9633311 184.740671,22.744 183.854,22.744 C182.967329,22.744 182.342002,22.9726644 181.978,23.43 C181.613998,23.8873356 181.422667,24.6573279 181.404,25.74 L186.248,25.74 Z M196.884,34 L193.132,34 L193.132,20 L196.856,20 L196.856,20.784 C198.144006,20.0373296 199.245329,19.664 200.16,19.664 C201.672008,19.664 202.838663,20.1026623 203.66,20.98 C205.377342,20.1026623 206.945326,19.664 208.364,19.664 C210.212009,19.664 211.49533,20.2006613 212.214,21.274 C212.93267,22.3473387 213.292,24.0599882 213.292,26.412 L213.292,34 L209.54,34 L209.54,26.524 C209.54,25.3293274 209.409335,24.4473362 209.148,23.878 C208.886665,23.3086638 208.364004,23.024 207.58,23.024 C206.982664,23.024 206.254671,23.1546654 205.396,23.416 L204.976,23.556 C205.050667,24.956007 205.088,26.0199964 205.088,26.748 L205.088,34 L201.336,34 L201.336,26.804 C201.336,25.4226598 201.214668,24.4473362 200.972,23.878 C200.729332,23.3086638 200.197337,23.024 199.376,23.024 C198.647996,23.024 197.929337,23.1546654 197.22,23.416 L196.884,23.528 L196.884,34 Z M215.836,20 L219.532,20 L222.08,30.808 L222.724,30.808 L225.272,20 L228.968,20 L224.04,39.88 L220.372,39.88 L221.912,34 L219.28,34 L215.836,20 Z" id="RemoteAcademy" sketch:type="MSShapeGroup"></path>
            </g>
        </g>
    </g>
</svg>