<?xml version="1.0" encoding="UTF-8" standalone="no"?>
<svg width="280px" height="60px" viewBox="0 0 280 60" version="1.1" xmlns="http://www.w3.org/2000/svg" xmlns:xlink="http://www.w3.org/1999/xlink" xmlns:sketch="http://www.bohemiancoding.com/sketch/ns">
    <!-- Generator: Sketch 3.4.3 (16044) - http://www.bohemiancoding.com/sketch -->
    <title>logo-landing</title>
    <desc>Created with Sketch.</desc>
    <defs></defs>
    <g id="Keaton-2" stroke="none" stroke-width="1" fill="none" fill-rule="evenodd" sketch:type="MSPage">
        <g id="Landing" sketch:type="MSArtboardGroup" transform="translate(-373.000000, -69.000000)" fill="#FFFFFF">
            <g id="Landing-+-RemoteAcademy-+-RENSSELAER-POLYTECHN" sketch:type="MSLayerGroup" transform="translate(358.000000, 47.000000)">
                <path d="M15.24,74 L15.24,48.44 L26.004,48.44 C27.1080055,48.44 28.1279953,48.6739977 29.064,49.142 C30.0000047,49.6100023 30.8039966,50.2219962 31.476,50.978 C32.1480034,51.7340038 32.6699981,52.5919952 33.042,53.552 C33.4140019,54.5120048 33.6,55.4839951 33.6,56.468 C33.6,57.4040047 33.4620014,58.2979957 33.186,59.15 C32.9099986,60.0020043 32.5200025,60.7699966 32.016,61.454 C31.5119975,62.1380034 30.9120035,62.7139977 30.216,63.182 C29.5199965,63.6500023 28.7400043,63.9679992 27.876,64.136 L34.176,74 L31.332,74 L25.284,64.568 L17.724,64.568 L17.724,74 L15.24,74 Z M17.724,62.336 L26.112,62.336 C26.8560037,62.336 27.5339969,62.1740016 28.146,61.85 C28.7580031,61.5259984 29.2799978,61.0880028 29.712,60.536 C30.1440022,59.9839972 30.4799988,59.3600035 30.72,58.664 C30.9600012,57.9679965 31.08,57.2360038 31.08,56.468 C31.08,55.6999962 30.9420014,54.9620035 30.666,54.254 C30.3899986,53.5459965 30.0180023,52.9280026 29.55,52.4 C29.0819977,51.8719974 28.5300032,51.4520016 27.894,51.14 C27.2579968,50.8279984 26.5920035,50.672 25.896,50.672 L17.724,50.672 L17.724,62.336 Z M47.2388571,74.36 C45.8708503,74.36 44.6108629,74.1020026 43.4588571,73.586 C42.3068514,73.0699974 41.3108613,72.3620045 40.4708571,71.462 C39.6308529,70.5619955 38.9768595,69.5240059 38.5088571,68.348 C38.0408548,67.1719941 37.8068571,65.9120067 37.8068571,64.568 C37.8068571,63.2479934 38.0408548,62.0060058 38.5088571,60.842 C38.9768595,59.6779942 39.6308529,58.6580044 40.4708571,57.782 C41.3108613,56.9059956 42.3008514,56.2100026 43.4408571,55.694 C44.5808628,55.1779974 45.8348503,54.92 47.2028571,54.92 C48.570864,54.92 49.8248514,55.1779974 50.9648571,55.694 C52.1048628,56.2100026 53.0828531,56.9119956 53.8988571,57.8 C54.7148612,58.6880044 55.3508549,59.7079942 55.8068571,60.86 C56.2628594,62.0120058 56.4908571,63.2359935 56.4908571,64.532 C56.4908571,64.724001 56.4848572,64.915999 56.4728571,65.108 C56.4608571,65.300001 56.4428573,65.4319996 56.4188571,65.504 L40.3988571,65.504 C40.4708575,66.512005 40.7048552,67.4419957 41.1008571,68.294 C41.4968591,69.1460043 42.0008541,69.8839969 42.6128571,70.508 C43.2248602,71.1320031 43.9328531,71.6179983 44.7368571,71.966 C45.5408612,72.3140017 46.3988526,72.488 47.3108571,72.488 C47.9348603,72.488 48.5468541,72.4040008 49.1468571,72.236 C49.7468601,72.0679992 50.2988546,71.8400014 50.8028571,71.552 C51.3068597,71.2639986 51.7568552,70.9100021 52.1528571,70.49 C52.5488591,70.0699979 52.8548561,69.6080025 53.0708571,69.104 L55.1948571,69.68 C54.9068557,70.3760035 54.4988598,71.0059972 53.9708571,71.57 C53.4428545,72.1340028 52.8308606,72.6259979 52.1348571,73.046 C51.4388537,73.4660021 50.6708613,73.7899989 49.8308571,74.018 C48.9908529,74.2460011 48.1268616,74.36 47.2388571,74.36 L47.2388571,74.36 Z M54.1508571,63.632 C54.0788568,62.623995 53.8448591,61.7060041 53.4488571,60.878 C53.0528552,60.0499959 52.5488602,59.336003 51.9368571,58.736 C51.3248541,58.135997 50.6108612,57.6680017 49.7948571,57.332 C48.9788531,56.9959983 48.1148617,56.828 47.2028571,56.828 C46.2908526,56.828 45.4268612,56.9959983 44.6108571,57.332 C43.7948531,57.6680017 43.0808602,58.135997 42.4688571,58.736 C41.8568541,59.336003 41.364859,60.0559958 40.9928571,60.896 C40.6208553,61.7360042 40.3988575,62.6479951 40.3268571,63.632 L54.1508571,63.632 Z M88.7057143,74 L86.2577143,74 L86.2577143,63.524 C86.2577143,61.3399891 85.9157177,59.7320052 85.2317143,58.7 C84.5477108,57.6679948 83.5097212,57.152 82.1177143,57.152 C81.3977107,57.152 80.7197174,57.2839987 80.0837143,57.548 C79.4477111,57.8120013 78.859717,58.1839976 78.3197143,58.664 C77.7797116,59.1440024 77.3057163,59.7139967 76.8977143,60.374 C76.4897122,61.0340033 76.1777153,61.759996 75.9617143,62.552 L75.9617143,74 L73.5137143,74 L73.5137143,63.524 C73.5137143,61.2919888 73.1777176,59.672005 72.5057143,58.664 C71.8337109,57.655995 70.8017212,57.152 69.4097143,57.152 C67.9937072,57.152 66.7337198,57.6439951 65.6297143,58.628 C64.5257087,59.6120049 63.7337167,60.907992 63.2537143,62.516 L63.2537143,74 L60.8057143,74 L60.8057143,55.244 L63.0377143,55.244 L63.0377143,59.492 C63.8057181,58.0519928 64.813708,56.930004 66.0617143,56.126 C67.3097205,55.321996 68.6897067,54.92 70.2017143,54.92 C71.7857222,54.92 73.0577095,55.3639956 74.0177143,56.252 C74.9777191,57.1400044 75.5537133,58.3039928 75.7457143,59.744 C77.497723,56.5279839 79.9216988,54.92 83.0177143,54.92 C84.0497194,54.92 84.9317106,55.1119981 85.6637143,55.496 C86.3957179,55.8800019 86.983712,56.4259965 87.4277143,57.134 C87.8717165,57.8420035 88.1957132,58.693995 88.3997143,59.69 C88.6037153,60.686005 88.7057143,61.7959939 88.7057143,63.02 L88.7057143,74 Z M102.524571,74.36 C101.156565,74.36 99.9025771,74.1020026 98.7625714,73.586 C97.6225657,73.0699974 96.6385755,72.3680044 95.8105714,71.48 C94.9825673,70.5919956 94.3405737,69.5600059 93.8845714,68.384 C93.4285691,67.2079941 93.2005714,65.9720065 93.2005714,64.676 C93.2005714,63.3559934 93.4345691,62.1080059 93.9025714,60.932 C94.3705737,59.7559941 95.0185673,58.7240044 95.8465714,57.836 C96.6745755,56.9479956 97.6585657,56.2400026 98.7985714,55.712 C99.9385771,55.1839974 101.180565,54.92 102.524571,54.92 C103.868578,54.92 105.110566,55.1839974 106.250571,55.712 C107.390577,56.2400026 108.374567,56.9479956 109.202571,57.836 C110.030576,58.7240044 110.678569,59.7559941 111.146571,60.932 C111.614574,62.1080059 111.848571,63.3559934 111.848571,64.676 C111.848571,65.9720065 111.614574,67.2079941 111.146571,68.384 C110.678569,69.5600059 110.030576,70.5919956 109.202571,71.48 C108.374567,72.3680044 107.390577,73.0699974 106.250571,73.586 C105.110566,74.1020026 103.868578,74.36 102.524571,74.36 L102.524571,74.36 Z M95.7205714,64.712 C95.7205714,65.7680053 95.8945697,66.7459955 96.2425714,67.646 C96.5905731,68.5460045 97.0705683,69.3379966 97.6825714,70.022 C98.2945745,70.7060034 99.0145673,71.2399981 99.8425714,71.624 C100.670576,72.0080019 101.552567,72.2 102.488571,72.2 C103.424576,72.2 104.306567,72.002002 105.134571,71.606 C105.962576,71.209998 106.688568,70.6700034 107.312571,69.986 C107.936575,69.3019966 108.42857,68.5040046 108.788571,67.592 C109.148573,66.6799954 109.328571,65.6960053 109.328571,64.64 C109.328571,63.6079948 109.148573,62.6300046 108.788571,61.706 C108.42857,60.7819954 107.936575,59.9780034 107.312571,59.294 C106.688568,58.6099966 105.968575,58.070002 105.152571,57.674 C104.336567,57.277998 103.460576,57.08 102.524571,57.08 C101.588567,57.08 100.706576,57.277998 99.8785714,57.674 C99.0505673,58.070002 98.3305745,58.6159965 97.7185714,59.312 C97.1065683,60.0080035 96.6205732,60.8179954 96.2605714,61.742 C95.9005696,62.6660046 95.7205714,63.6559947 95.7205714,64.712 L95.7205714,64.712 Z M125.271429,73.1 C125.127428,73.1720004 124.91743,73.2679994 124.641429,73.388 C124.365427,73.5080006 124.04743,73.6279994 123.687429,73.748 C123.327427,73.8680006 122.919431,73.9759995 122.463429,74.072 C122.007426,74.1680005 121.527431,74.216 121.023429,74.216 C120.495426,74.216 119.991431,74.1440007 119.511429,74 C119.031426,73.8559993 118.61143,73.6340015 118.251429,73.334 C117.891427,73.0339985 117.60343,72.6560023 117.387429,72.2 C117.171427,71.7439977 117.063429,71.216003 117.063429,70.616 L117.063429,57.188 L114.471429,57.188 L114.471429,55.244 L117.063429,55.244 L117.063429,48.908 L119.511429,48.908 L119.511429,55.244 L123.831429,55.244 L123.831429,57.188 L119.511429,57.188 L119.511429,69.932 C119.559429,70.6280035 119.799426,71.1379984 120.231429,71.462 C120.663431,71.7860016 121.179426,71.948 121.779429,71.948 C122.475432,71.948 123.087426,71.8340011 123.615429,71.606 C124.143431,71.3779989 124.479428,71.2160005 124.623429,71.12 L125.271429,73.1 Z M137.002286,74.36 C135.634279,74.36 134.374291,74.1020026 133.222286,73.586 C132.07028,73.0699974 131.07429,72.3620045 130.234286,71.462 C129.394281,70.5619955 128.740288,69.5240059 128.272286,68.348 C127.804283,67.1719941 127.570286,65.9120067 127.570286,64.568 C127.570286,63.2479934 127.804283,62.0060058 128.272286,60.842 C128.740288,59.6779942 129.394281,58.6580044 130.234286,57.782 C131.07429,56.9059956 132.06428,56.2100026 133.204286,55.694 C134.344291,55.1779974 135.598279,54.92 136.966286,54.92 C138.334293,54.92 139.58828,55.1779974 140.728286,55.694 C141.868291,56.2100026 142.846282,56.9119956 143.662286,57.8 C144.47829,58.6880044 145.114283,59.7079942 145.570286,60.86 C146.026288,62.0120058 146.254286,63.2359935 146.254286,64.532 C146.254286,64.724001 146.248286,64.915999 146.236286,65.108 C146.224286,65.300001 146.206286,65.4319996 146.182286,65.504 L130.162286,65.504 C130.234286,66.512005 130.468284,67.4419957 130.864286,68.294 C131.260288,69.1460043 131.764283,69.8839969 132.376286,70.508 C132.988289,71.1320031 133.696282,71.6179983 134.500286,71.966 C135.30429,72.3140017 136.162281,72.488 137.074286,72.488 C137.698289,72.488 138.310283,72.4040008 138.910286,72.236 C139.510289,72.0679992 140.062283,71.8400014 140.566286,71.552 C141.070288,71.2639986 141.520284,70.9100021 141.916286,70.49 C142.312288,70.0699979 142.618285,69.6080025 142.834286,69.104 L144.958286,69.68 C144.670284,70.3760035 144.262288,71.0059972 143.734286,71.57 C143.206283,72.1340028 142.594289,72.6259979 141.898286,73.046 C141.202282,73.4660021 140.43429,73.7899989 139.594286,74.018 C138.754281,74.2460011 137.89029,74.36 137.002286,74.36 L137.002286,74.36 Z M143.914286,63.632 C143.842285,62.623995 143.608288,61.7060041 143.212286,60.878 C142.816284,60.0499959 142.312289,59.336003 141.700286,58.736 C141.088283,58.135997 140.37429,57.6680017 139.558286,57.332 C138.742282,56.9959983 137.87829,56.828 136.966286,56.828 C136.054281,56.828 135.19029,56.9959983 134.374286,57.332 C133.558282,57.6680017 132.844289,58.135997 132.232286,58.736 C131.620283,59.336003 131.128288,60.0559958 130.756286,60.896 C130.384284,61.7360042 130.162286,62.6479951 130.090286,63.632 L143.914286,63.632 Z M148.553143,74 L154.061143,49.52 L163.493143,49.52 L169.001143,74 L164.033143,74 L163.061143,69.572 L154.493143,69.572 L153.521143,74 L148.553143,74 Z M157.913143,53.624 L155.429143,65.252 L162.125143,65.252 L159.641143,53.624 L157.913143,53.624 Z M179.223673,55.568 C180.47168,55.568 182.067664,55.7599981 184.011673,56.144 L184.983673,56.36 L184.839673,60.176 C182.943664,59.983999 181.539678,59.888 180.627673,59.888 C178.971665,59.888 177.873676,60.2419965 177.333673,60.95 C176.793671,61.6580035 176.523673,62.9959902 176.523673,64.964 C176.523673,66.9320098 176.793671,68.2819963 177.333673,69.014 C177.873676,69.7460037 178.983665,70.112 180.663673,70.112 L184.839673,69.824 L184.983673,73.676 C182.415661,74.1800025 180.45968,74.432 179.115673,74.432 C176.45166,74.432 174.537679,73.6820075 173.373673,72.182 C172.209668,70.6819925 171.627673,68.2760166 171.627673,64.964 C171.627673,61.6519834 172.227667,59.2580074 173.427673,57.782 C174.627679,56.3059926 176.55966,55.568 179.223673,55.568 L179.223673,55.568 Z M203.162204,61.616 L203.162204,69.104 C203.210204,69.6800029 203.306203,70.0819989 203.450204,70.31 C203.594205,70.5380011 203.894202,70.6999995 204.350204,70.796 L204.206204,74.432 C202.982198,74.432 202.004208,74.3480008 201.272204,74.18 C200.5402,74.0119992 199.802208,73.6760025 199.058204,73.172 C197.330195,74.0120042 195.566213,74.432 193.766204,74.432 C190.046185,74.432 188.186204,72.4640197 188.186204,68.528 C188.186204,66.6079904 188.702199,65.246004 189.734204,64.442 C190.766209,63.637996 192.350193,63.1640007 194.486204,63.02 L198.338204,62.732 L198.338204,61.616 C198.338204,60.8719963 198.170206,60.3620014 197.834204,60.086 C197.498202,59.8099986 196.958208,59.672 196.214204,59.672 L189.446204,59.96 L189.302204,56.612 C191.870217,55.9159965 194.312192,55.568 196.628204,55.568 C198.944216,55.568 200.612199,56.0479952 201.632204,57.008 C202.652209,57.9680048 203.162204,59.5039894 203.162204,61.616 L203.162204,61.616 Z M195.062204,66.368 C193.718197,66.4880006 193.046204,67.2079934 193.046204,68.528 C193.046204,69.8480066 193.634198,70.508 194.810204,70.508 C195.722209,70.508 196.718199,70.3640014 197.798204,70.076 L198.338204,69.932 L198.338204,66.08 L195.062204,66.368 Z M223.896735,48.8 L223.896735,74 L219.108735,74 L219.108735,73.244 C217.428726,74.036004 215.976741,74.432 214.752735,74.432 C212.136721,74.432 210.31274,73.6760076 209.280735,72.164 C208.248729,70.6519924 207.732735,68.2580164 207.732735,64.982 C207.732735,61.7059836 208.350728,59.3180075 209.586735,57.818 C210.822741,56.3179925 212.688722,55.568 215.184735,55.568 C215.952738,55.568 217.020728,55.6879988 218.388735,55.928 L219.072735,56.072 L219.072735,48.8 L223.896735,48.8 Z M218.568735,69.68 L219.072735,69.572 L219.072735,60.104 C217.752728,59.8639988 216.57674,59.744 215.544735,59.744 C213.600725,59.744 212.628735,61.4719827 212.628735,64.928 C212.628735,66.8000094 212.844732,68.131996 213.276735,68.924 C213.708737,69.716004 214.42273,70.112 215.418735,70.112 C216.41474,70.112 217.464729,69.9680014 218.568735,69.68 L218.568735,69.68 Z M234.029265,69.446 C234.593268,69.9380025 235.40326,70.184 236.459265,70.184 C238.691276,70.184 240.683256,70.1120007 242.435265,69.968 L243.443265,69.86 L243.515265,73.424 C240.755251,74.0960034 238.259276,74.432 236.027265,74.432 C233.315252,74.432 231.347271,73.7120072 230.123265,72.272 C228.899259,70.8319928 228.287265,68.4920162 228.287265,65.252 C228.287265,58.7959677 230.939239,55.568 236.243265,55.568 C241.475291,55.568 244.091265,58.2799729 244.091265,63.704 L243.731265,67.052 L233.147265,67.052 C233.171265,68.1560055 233.465262,68.9539975 234.029265,69.446 L234.029265,69.446 Z M239.339265,63.38 C239.339265,61.9399928 239.111267,60.9380028 238.655265,60.374 C238.199263,59.8099972 237.401271,59.528 236.261265,59.528 C235.121259,59.528 234.317267,59.8219971 233.849265,60.41 C233.381263,60.9980029 233.135265,61.987993 233.111265,63.38 L239.339265,63.38 Z M253.197796,74 L248.373796,74 L248.373796,56 L253.161796,56 L253.161796,57.008 C254.817804,56.0479952 256.23379,55.568 257.409796,55.568 C259.353805,55.568 260.85379,56.1319944 261.909796,57.26 C264.117807,56.1319944 266.133787,55.568 267.957796,55.568 C270.333808,55.568 271.983791,56.2579931 272.907796,57.638 C273.8318,59.0180069 274.293796,61.2199849 274.293796,64.244 L274.293796,74 L269.469796,74 L269.469796,64.388 C269.469796,62.8519923 269.301797,61.7180037 268.965796,60.986 C268.629794,60.2539963 267.957801,59.888 266.949796,59.888 C266.181792,59.888 265.245801,60.0559983 264.141796,60.392 L263.601796,60.572 C263.697796,62.372009 263.745796,63.7399953 263.745796,64.676 L263.745796,74 L258.921796,74 L258.921796,64.748 C258.921796,62.9719911 258.765797,61.7180037 258.453796,60.986 C258.141794,60.2539963 257.457801,59.888 256.401796,59.888 C255.465791,59.888 254.5418,60.0559983 253.629796,60.392 L253.197796,60.536 L253.197796,74 Z M277.568326,56 L282.320326,56 L285.596326,69.896 L286.424326,69.896 L289.700326,56 L294.452326,56 L288.116326,81.56 L283.400326,81.56 L285.380326,74 L281.996326,74 L277.568326,56 Z" id="RemoteAcademy" sketch:type="MSShapeGroup"></path>
                <path d="M16.17,32 L16.17,22.77 L20.057,22.77 C20.4556687,22.77 20.8239983,22.8544992 21.162,23.0235 C21.5000017,23.1925008 21.7903321,23.4134986 22.033,23.6865 C22.2756679,23.9595014 22.464166,24.2693316 22.5985,24.616 C22.732834,24.9626684 22.8,25.3136649 22.8,25.669 C22.8,26.0070017 22.7501672,26.3298318 22.6505,26.6375 C22.5508328,26.9451682 22.4100009,27.2224988 22.228,27.4695 C22.0459991,27.7165012 21.8293346,27.9244992 21.578,28.0935 C21.3266654,28.2625008 21.0450016,28.377333 20.733,28.438 L23.008,32 L21.981,32 L19.797,28.594 L17.067,28.594 L17.067,32 L16.17,32 Z M17.067,27.788 L20.096,27.788 C20.364668,27.788 20.6094989,27.7295006 20.8305,27.6125 C21.0515011,27.4954994 21.2399992,27.3373343 21.396,27.138 C21.5520008,26.9386657 21.6733329,26.7133346 21.76,26.462 C21.8466671,26.2106654 21.89,25.9463347 21.89,25.669 C21.89,25.3916653 21.8401672,25.1251679 21.7405,24.8695 C21.6408328,24.6138321 21.5065008,24.3906676 21.3375,24.2 C21.1684992,24.0093324 20.9691678,23.8576672 20.7395,23.745 C20.5098322,23.6323328 20.2693346,23.576 20.018,23.576 L17.067,23.576 L17.067,27.788 Z M32.051,31.194 L32.051,32 L25.85,32 L25.85,22.77 L31.934,22.77 L31.934,23.576 L26.747,23.576 L26.747,26.904 L31.271,26.904 L31.271,27.671 L26.747,27.671 L26.747,31.194 L32.051,31.194 Z M35.816,24.46 L35.816,32 L34.919,32 L34.919,22.77 L35.621,22.77 L41.731,30.453 L41.731,22.783 L42.628,22.783 L42.628,32 L41.848,32 L35.816,24.46 Z M51.4890001,24.499 C51.2289988,24.2043319 50.8801689,23.9660009 50.4425001,23.784 C50.0048312,23.6019991 49.5130028,23.511 48.9670001,23.511 C48.1436626,23.511 47.5456686,23.6648318 47.1730001,23.9725 C46.8003315,24.2801682 46.6140001,24.6983307 46.6140001,25.227 C46.6140001,25.5043347 46.6638329,25.7318324 46.7635001,25.9095 C46.8631672,26.0871676 47.0191657,26.2409993 47.2315001,26.371 C47.4438345,26.5010006 47.7124984,26.6136662 48.0375001,26.709 C48.3625017,26.8043338 48.7459979,26.8996662 49.1880001,26.995 C49.6820025,27.0990005 50.1239981,27.2138327 50.5140001,27.3395 C50.904002,27.4651673 51.2376654,27.625499 51.5150001,27.8205 C51.7923348,28.015501 52.004666,28.2538319 52.1520001,28.5355 C52.2993341,28.8171681 52.3730001,29.1659979 52.3730001,29.582 C52.3730001,30.0066688 52.2906676,30.3749984 52.1260001,30.687 C51.9613326,30.9990016 51.7316682,31.258999 51.4370001,31.467 C51.1423319,31.675001 50.7913354,31.8288328 50.3840001,31.9285 C49.9766647,32.0281672 49.5346691,32.078 49.0580001,32.078 C47.6106595,32.078 46.3756719,31.6316711 45.3530001,30.739 L45.7950001,29.998 C46.1330018,30.3533351 46.5879972,30.6544988 47.1600001,30.9015 C47.7320029,31.1485012 48.3689966,31.272 49.0710001,31.272 C49.8076704,31.272 50.383998,31.1398347 50.8000001,30.8755 C51.2160022,30.6111653 51.4240001,30.210336 51.4240001,29.673 C51.4240001,29.3869986 51.3655007,29.146501 51.2485001,28.9515 C51.1314995,28.756499 50.9560012,28.5875007 50.7220001,28.4445 C50.4879989,28.3014993 50.1955018,28.1780005 49.8445001,28.074 C49.4934983,27.9699995 49.0883357,27.8660005 48.6290001,27.762 C48.1436643,27.6493328 47.7190019,27.5323339 47.3550001,27.411 C46.9909983,27.2896661 46.6855013,27.1380009 46.4385001,26.956 C46.1914988,26.7739991 46.0051674,26.5551679 45.8795001,26.2995 C45.7538328,26.0438321 45.6910001,25.7296685 45.6910001,25.357 C45.6910001,24.9323312 45.7711659,24.5531683 45.9315001,24.2195 C46.0918342,23.8858317 46.3171653,23.6085011 46.6075001,23.3875 C46.8978349,23.1664989 47.2444981,22.9975006 47.6475001,22.8805 C48.0505021,22.7634994 48.4946643,22.705 48.9800001,22.705 C49.5866698,22.705 50.1304977,22.7981657 50.6115001,22.9845 C51.0925025,23.1708343 51.5279981,23.4329983 51.9180001,23.771 L51.4890001,24.499 Z M60.5450001,24.499 C60.2849988,24.2043319 59.936169,23.9660009 59.4985001,23.784 C59.0608312,23.6019991 58.5690028,23.511 58.0230001,23.511 C57.1996626,23.511 56.6016686,23.6648318 56.2290001,23.9725 C55.8563316,24.2801682 55.6700001,24.6983307 55.6700001,25.227 C55.6700001,25.5043347 55.7198329,25.7318324 55.8195001,25.9095 C55.9191673,26.0871676 56.0751657,26.2409993 56.2875001,26.371 C56.4998345,26.5010006 56.7684985,26.6136662 57.0935001,26.709 C57.4185017,26.8043338 57.8019979,26.8996662 58.2440001,26.995 C58.7380026,27.0990005 59.1799981,27.2138327 59.5700001,27.3395 C59.960002,27.4651673 60.2936654,27.625499 60.5710001,27.8205 C60.8483348,28.015501 61.060666,28.2538319 61.2080001,28.5355 C61.3553342,28.8171681 61.4290001,29.1659979 61.4290001,29.582 C61.4290001,30.0066688 61.3466676,30.3749984 61.1820001,30.687 C61.0173326,30.9990016 60.7876682,31.258999 60.4930001,31.467 C60.198332,31.675001 59.8473355,31.8288328 59.4400001,31.9285 C59.0326647,32.0281672 58.5906691,32.078 58.1140001,32.078 C56.6666595,32.078 55.4316719,31.6316711 54.4090001,30.739 L54.8510001,29.998 C55.1890018,30.3533351 55.6439972,30.6544988 56.2160001,30.9015 C56.788003,31.1485012 57.4249966,31.272 58.1270001,31.272 C58.8636704,31.272 59.439998,31.1398347 59.8560001,30.8755 C60.2720022,30.6111653 60.4800001,30.210336 60.4800001,29.673 C60.4800001,29.3869986 60.4215007,29.146501 60.3045001,28.9515 C60.1874995,28.756499 60.0120013,28.5875007 59.7780001,28.4445 C59.5439989,28.3014993 59.2515019,28.1780005 58.9005001,28.074 C58.5494983,27.9699995 58.1443357,27.8660005 57.6850001,27.762 C57.1996643,27.6493328 56.7750019,27.5323339 56.4110001,27.411 C56.0469983,27.2896661 55.7415013,27.1380009 55.4945001,26.956 C55.2474989,26.7739991 55.0611674,26.5551679 54.9355001,26.2995 C54.8098328,26.0438321 54.7470001,25.7296685 54.7470001,25.357 C54.7470001,24.9323312 54.827166,24.5531683 54.9875001,24.2195 C55.1478342,23.8858317 55.3731653,23.6085011 55.6635001,23.3875 C55.9538349,23.1664989 56.3004981,22.9975006 56.7035001,22.8805 C57.1065021,22.7634994 57.5506643,22.705 58.0360001,22.705 C58.6426698,22.705 59.1864977,22.7981657 59.6675001,22.9845 C60.1485025,23.1708343 60.5839981,23.4329983 60.9740001,23.771 L60.5450001,24.499 Z M70.3810001,31.194 L70.3810001,32 L64.1800001,32 L64.1800001,22.77 L70.2640001,22.77 L70.2640001,23.576 L65.0770001,23.576 L65.0770001,26.904 L69.6010001,26.904 L69.6010001,27.671 L65.0770001,27.671 L65.0770001,31.194 L70.3810001,31.194 Z M73.2490001,32 L73.2490001,22.77 L74.1460001,22.77 L74.1460001,31.194 L79.4890001,31.194 L79.4890001,32 L73.2490001,32 Z M81.0440002,32 L84.9050002,22.77 L85.6460002,22.77 L89.5070002,32 L88.5320002,32 L87.3360002,29.114 L83.1890002,29.114 L82.0060002,32 L81.0440002,32 Z M85.2820002,23.836 L83.3840002,28.399 L87.1280002,28.399 L85.2820002,23.836 Z M98.1470002,31.194 L98.1470002,32 L91.9460002,32 L91.9460002,22.77 L98.0300002,22.77 L98.0300002,23.576 L92.8430002,23.576 L92.8430002,26.904 L97.3670002,26.904 L97.3670002,27.671 L92.8430002,27.671 L92.8430002,31.194 L98.1470002,31.194 Z M101.015,32 L101.015,22.77 L104.902,22.77 C105.300669,22.77 105.668999,22.8544992 106.007,23.0235 C106.345002,23.1925008 106.635332,23.4134986 106.878,23.6865 C107.120668,23.9595014 107.309166,24.2693316 107.4435,24.616 C107.577834,24.9626684 107.645,25.3136649 107.645,25.669 C107.645,26.0070017 107.595167,26.3298318 107.4955,26.6375 C107.395833,26.9451682 107.255001,27.2224988 107.073,27.4695 C106.890999,27.7165012 106.674335,27.9244992 106.423,28.0935 C106.171666,28.2625008 105.890002,28.377333 105.578,28.438 L107.853,32 L106.826,32 L104.642,28.594 L101.912,28.594 L101.912,32 L101.015,32 Z M101.912,27.788 L104.941,27.788 C105.209668,27.788 105.454499,27.7295006 105.6755,27.6125 C105.896501,27.4954994 106.084999,27.3373343 106.241,27.138 C106.397001,26.9386657 106.518333,26.7133346 106.605,26.462 C106.691667,26.2106654 106.735,25.9463347 106.735,25.669 C106.735,25.3916653 106.685167,25.1251679 106.5855,24.8695 C106.485833,24.6138321 106.351501,24.3906676 106.1825,24.2 C106.013499,24.0093324 105.814168,23.8576672 105.5845,23.745 C105.354832,23.6323328 105.114335,23.576 104.863,23.576 L101.912,23.576 L101.912,27.788 Z M115.123,32 L115.123,22.77 L118.945,22.77 C119.343669,22.77 119.709832,22.8544992 120.0435,23.0235 C120.377169,23.1925008 120.665332,23.4134986 120.908,23.6865 C121.150668,23.9595014 121.339166,24.2693316 121.4735,24.616 C121.607834,24.9626684 121.675,25.3136649 121.675,25.669 C121.675,26.0503352 121.612168,26.4164982 121.4865,26.7675 C121.360833,27.1185018 121.181001,27.428332 120.947,27.697 C120.712999,27.965668 120.433502,28.1823325 120.1085,28.347 C119.783499,28.5116675 119.421669,28.594 119.023,28.594 L116.02,28.594 L116.02,32 L115.123,32 Z M116.02,27.788 L118.971,27.788 C119.239668,27.788 119.484499,27.7295006 119.7055,27.6125 C119.926501,27.4954994 120.114999,27.339501 120.271,27.1445 C120.427001,26.949499 120.548333,26.7241679 120.635,26.4685 C120.721667,26.2128321 120.765,25.9463347 120.765,25.669 C120.765,25.3829986 120.715167,25.1121679 120.6155,24.8565 C120.515833,24.6008321 120.381501,24.3776676 120.2125,24.187 C120.043499,23.9963324 119.844168,23.8468339 119.6145,23.7385 C119.384832,23.6301661 119.144335,23.576 118.893,23.576 L116.02,23.576 L116.02,27.788 Z M128.04,32.065 C127.398664,32.065 126.811503,31.9328347 126.2785,31.6685 C125.745498,31.4041653 125.288336,31.0531689 124.907,30.6155 C124.525665,30.1778311 124.231001,29.6773361 124.023,29.114 C123.814999,28.5506638 123.711,27.9743363 123.711,27.385 C123.711,26.7696636 123.821499,26.1803361 124.0425,25.617 C124.263501,25.0536638 124.568998,24.5553355 124.959,24.122 C125.349002,23.6886645 125.808331,23.3441679 126.337,23.0885 C126.86567,22.8328321 127.437664,22.705 128.053,22.705 C128.694337,22.705 129.281498,22.8414986 129.8145,23.1145 C130.347503,23.3875014 130.802498,23.7449978 131.1795,24.187 C131.556502,24.6290022 131.848999,25.1294972 132.057,25.6885 C132.265001,26.2475028 132.369,26.8173304 132.369,27.398 C132.369,28.0133364 132.258501,28.6026638 132.0375,29.166 C131.816499,29.7293362 131.513169,30.2254979 131.1275,30.6545 C130.741832,31.0835021 130.28467,31.4258321 129.756,31.6815 C129.227331,31.9371679 128.655337,32.065 128.04,32.065 L128.04,32.065 Z M124.621,27.385 C124.621,27.8876692 124.703333,28.370831 124.868,28.8345 C125.032668,29.298169 125.266665,29.7098315 125.57,30.0695 C125.873335,30.4291685 126.232998,30.7151656 126.649,30.9275 C127.065002,31.1398344 127.528664,31.246 128.04,31.246 C128.560003,31.246 129.032331,31.1333345 129.457,30.908 C129.881669,30.6826655 130.241332,30.3880018 130.536,30.024 C130.830668,29.6599982 131.058166,29.2483356 131.2185,28.789 C131.378834,28.3296644 131.459,27.861669 131.459,27.385 C131.459,26.8823308 131.374501,26.399169 131.2055,25.9355 C131.036499,25.471831 130.800335,25.0623351 130.497,24.707 C130.193665,24.3516649 129.834002,24.0678344 129.418,23.8555 C129.001998,23.6431656 128.542669,23.537 128.04,23.537 C127.519998,23.537 127.047669,23.6474989 126.623,23.8685 C126.198331,24.0895011 125.838668,24.3819982 125.544,24.746 C125.249332,25.1100018 125.021834,25.5216644 124.8615,25.981 C124.701166,26.4403356 124.621,26.9083309 124.621,27.385 L124.621,27.385 Z M135.224,32 L135.224,22.77 L136.121,22.77 L136.121,31.194 L141.464,31.194 L141.464,32 L135.224,32 Z M142.395,22.77 L145.424,27.736 L148.466,22.77 L149.454,22.77 L145.866,28.568 L145.866,32 L144.969,32 L144.969,28.542 L141.407,22.77 L142.395,22.77 Z M158.38,23.576 L155.091,23.576 L155.091,32 L154.181,32 L154.181,23.576 L150.892,23.576 L150.892,22.77 L158.38,22.77 L158.38,23.576 Z M167.098,31.194 L167.098,32 L160.897,32 L160.897,22.77 L166.981,22.77 L166.981,23.576 L161.794,23.576 L161.794,26.904 L166.318,26.904 L166.318,27.671 L161.794,27.671 L161.794,31.194 L167.098,31.194 Z M169.368,27.32 C169.368,26.7653306 169.465499,26.2128361 169.6605,25.6625 C169.855501,25.1121639 170.139332,24.6203355 170.512,24.187 C170.884669,23.7536645 171.343998,23.4005014 171.89,23.1275 C172.436003,22.8544986 173.055664,22.718 173.749,22.718 C174.572338,22.718 175.274331,22.9043315 175.855,23.277 C176.43567,23.6496685 176.868999,24.134997 177.155,24.733 L176.427,25.175 C176.279666,24.8716651 176.102001,24.616001 175.894,24.408 C175.685999,24.199999 175.460668,24.0310006 175.218,23.901 C174.975333,23.7709994 174.724002,23.6778336 174.464,23.6215 C174.203999,23.5651664 173.948335,23.537 173.697,23.537 C173.142331,23.537 172.652669,23.6496655 172.228,23.875 C171.803332,24.1003345 171.445835,24.3949982 171.1555,24.759 C170.865166,25.1230018 170.646334,25.5324977 170.499,25.9875 C170.351666,26.4425023 170.278,26.9039977 170.278,27.372 C170.278,27.8833359 170.366833,28.3729977 170.5445,28.841 C170.722168,29.3090023 170.964832,29.7228315 171.2725,30.0825 C171.580169,30.4421685 171.944165,30.7281656 172.3645,30.9405 C172.784836,31.1528344 173.241998,31.259 173.736,31.259 C173.996002,31.259 174.262499,31.2265003 174.5355,31.1615 C174.808502,31.0964997 175.072832,30.9925007 175.3285,30.8495 C175.584168,30.7064993 175.820333,30.5288344 176.037,30.3165 C176.253668,30.1041656 176.435666,29.8463348 176.583,29.543 L177.337,29.933 C177.189666,30.2796684 176.981668,30.5851653 176.713,30.8495 C176.444332,31.1138347 176.145335,31.3369991 175.816,31.519 C175.486665,31.7010009 175.137836,31.8396662 174.7695,31.935 C174.401165,32.0303338 174.039336,32.078 173.684,32.078 C173.051331,32.078 172.47067,31.9393347 171.942,31.662 C171.413331,31.3846653 170.958336,31.0228356 170.577,30.5765 C170.195665,30.1301644 169.898835,29.6231695 169.6865,29.0555 C169.474166,28.4878305 169.368,27.9093363 169.368,27.32 L169.368,27.32 Z M187.303,22.77 L187.303,32 L186.393,32 L186.393,27.684 L180.92,27.684 L180.92,32 L180.023,32 L180.023,22.77 L180.92,22.77 L180.92,26.878 L186.393,26.878 L186.393,22.77 L187.303,22.77 Z M191.627,24.46 L191.627,32 L190.73,32 L190.73,22.77 L191.432,22.77 L197.542,30.453 L197.542,22.783 L198.439,22.783 L198.439,32 L197.659,32 L191.627,24.46 Z M201.879,32 L201.879,22.783 L202.776,22.783 L202.776,32 L201.879,32 Z M205.618001,27.32 C205.618001,26.7653306 205.7155,26.2128361 205.910501,25.6625 C206.105501,25.1121639 206.389332,24.6203355 206.762001,24.187 C207.134669,23.7536645 207.593998,23.4005014 208.140001,23.1275 C208.686003,22.8544986 209.305664,22.718 209.999001,22.718 C210.822338,22.718 211.524331,22.9043315 212.105001,23.277 C212.68567,23.6496685 213.118999,24.134997 213.405001,24.733 L212.677001,25.175 C212.529666,24.8716651 212.352002,24.616001 212.144001,24.408 C211.935999,24.199999 211.710668,24.0310006 211.468001,23.901 C211.225333,23.7709994 210.974002,23.6778336 210.714001,23.6215 C210.453999,23.5651664 210.198335,23.537 209.947001,23.537 C209.392331,23.537 208.902669,23.6496655 208.478001,23.875 C208.053332,24.1003345 207.695835,24.3949982 207.405501,24.759 C207.115166,25.1230018 206.896335,25.5324977 206.749001,25.9875 C206.601666,26.4425023 206.528001,26.9039977 206.528001,27.372 C206.528001,27.8833359 206.616833,28.3729977 206.794501,28.841 C206.972168,29.3090023 207.214832,29.7228315 207.522501,30.0825 C207.830169,30.4421685 208.194165,30.7281656 208.614501,30.9405 C209.034836,31.1528344 209.491998,31.259 209.986001,31.259 C210.246002,31.259 210.512499,31.2265003 210.785501,31.1615 C211.058502,31.0964997 211.322833,30.9925007 211.578501,30.8495 C211.834168,30.7064993 212.070333,30.5288344 212.287001,30.3165 C212.503668,30.1041656 212.685666,29.8463348 212.833001,29.543 L213.587001,29.933 C213.439666,30.2796684 213.231669,30.5851653 212.963001,30.8495 C212.694332,31.1138347 212.395335,31.3369991 212.066001,31.519 C211.736666,31.7010009 211.387836,31.8396662 211.019501,31.935 C210.651165,32.0303338 210.289336,32.078 209.934001,32.078 C209.301331,32.078 208.72067,31.9393347 208.192001,31.662 C207.663331,31.3846653 207.208336,31.0228356 206.827001,30.5765 C206.445665,30.1301644 206.148835,29.6231695 205.936501,29.0555 C205.724166,28.4878305 205.618001,27.9093363 205.618001,27.32 L205.618001,27.32 Z M220.701001,32 L220.701001,22.783 L221.598001,22.783 L221.598001,32 L220.701001,32 Z M225.935001,24.46 L225.935001,32 L225.038001,32 L225.038001,22.77 L225.740001,22.77 L231.850001,30.453 L231.850001,22.783 L232.747001,22.783 L232.747001,32 L231.967001,32 L225.935001,24.46 Z M241.608001,24.499 C241.347999,24.2043319 240.999169,23.9660009 240.561501,23.784 C240.123832,23.6019991 239.632003,23.511 239.086001,23.511 C238.262663,23.511 237.664669,23.6648318 237.292001,23.9725 C236.919332,24.2801682 236.733001,24.6983307 236.733001,25.227 C236.733001,25.5043347 236.782833,25.7318324 236.882501,25.9095 C236.982168,26.0871676 237.138166,26.2409993 237.350501,26.371 C237.562835,26.5010006 237.831499,26.6136662 238.156501,26.709 C238.481502,26.8043338 238.864998,26.8996662 239.307001,26.995 C239.801003,27.0990005 240.242999,27.2138327 240.633001,27.3395 C241.023003,27.4651673 241.356666,27.625499 241.634001,27.8205 C241.911335,28.015501 242.123667,28.2538319 242.271001,28.5355 C242.418335,28.8171681 242.492001,29.1659979 242.492001,29.582 C242.492001,30.0066688 242.409668,30.3749984 242.245001,30.687 C242.080333,30.9990016 241.850669,31.258999 241.556001,31.467 C241.261332,31.675001 240.910336,31.8288328 240.503001,31.9285 C240.095665,32.0281672 239.65367,32.078 239.177001,32.078 C237.72966,32.078 236.494672,31.6316711 235.472001,30.739 L235.914001,29.998 C236.252002,30.3533351 236.706998,30.6544988 237.279001,30.9015 C237.851003,31.1485012 238.487997,31.272 239.190001,31.272 C239.926671,31.272 240.502999,31.1398347 240.919001,30.8755 C241.335003,30.6111653 241.543001,30.210336 241.543001,29.673 C241.543001,29.3869986 241.484501,29.146501 241.367501,28.9515 C241.2505,28.756499 241.075002,28.5875007 240.841001,28.4445 C240.606999,28.3014993 240.314502,28.1780005 239.963501,28.074 C239.612499,27.9699995 239.207336,27.8660005 238.748001,27.762 C238.262665,27.6493328 237.838002,27.5323339 237.474001,27.411 C237.109999,27.2896661 236.804502,27.1380009 236.557501,26.956 C236.310499,26.7739991 236.124168,26.5551679 235.998501,26.2995 C235.872833,26.0438321 235.810001,25.7296685 235.810001,25.357 C235.810001,24.9323312 235.890166,24.5531683 236.050501,24.2195 C236.210835,23.8858317 236.436166,23.6085011 236.726501,23.3875 C237.016835,23.1664989 237.363499,22.9975006 237.766501,22.8805 C238.169503,22.7634994 238.613665,22.705 239.099001,22.705 C239.70567,22.705 240.249498,22.7981657 240.730501,22.9845 C241.211503,23.1708343 241.646999,23.4329983 242.037001,23.771 L241.608001,24.499 Z M251.704001,23.576 L248.415001,23.576 L248.415001,32 L247.505001,32 L247.505001,23.576 L244.216001,23.576 L244.216001,22.77 L251.704001,22.77 L251.704001,23.576 Z M254.221001,32 L254.221001,22.783 L255.118001,22.783 L255.118001,32 L254.221001,32 Z M265.123001,23.576 L261.834001,23.576 L261.834001,32 L260.924001,32 L260.924001,23.576 L257.635001,23.576 L257.635001,22.77 L265.123001,22.77 L265.123001,23.576 Z M271.371001,31.246 C271.95167,31.246 272.434832,31.1355011 272.820501,30.9145 C273.206169,30.6934989 273.513833,30.4031685 273.743501,30.0435 C273.973169,29.6838315 274.1335,29.2743356 274.224501,28.815 C274.315501,28.3556644 274.361001,27.8920023 274.361001,27.424 L274.361001,22.77 L275.271001,22.77 L275.271001,27.424 C275.271001,28.0480031 275.201668,28.6394972 275.063001,29.1985 C274.924333,29.7575028 274.701169,30.2493312 274.393501,30.674 C274.085832,31.0986688 273.685003,31.4366654 273.191001,31.688 C272.696998,31.9393346 272.094671,32.065 271.384001,32.065 C270.64733,32.065 270.032003,31.9328347 269.538001,31.6685 C269.043998,31.4041653 268.645336,31.0553355 268.342001,30.622 C268.038666,30.1886645 267.822001,29.6946694 267.692001,29.14 C267.562,28.5853306 267.497001,28.0133363 267.497001,27.424 L267.497001,22.77 L268.394001,22.77 L268.394001,27.424 C268.394001,27.9093358 268.441667,28.3816644 268.537001,28.841 C268.632335,29.3003356 268.794833,29.7076649 269.024501,30.063 C269.254169,30.4183351 269.559665,30.7043323 269.941001,30.921 C270.322336,31.1376677 270.798998,31.246 271.371001,31.246 L271.371001,31.246 Z M285.120001,23.576 L281.831001,23.576 L281.831001,32 L280.921001,32 L280.921001,23.576 L277.632001,23.576 L277.632001,22.77 L285.120001,22.77 L285.120001,23.576 Z M293.838001,31.194 L293.838001,32 L287.637001,32 L287.637001,22.77 L293.721001,22.77 L293.721001,23.576 L288.534001,23.576 L288.534001,26.904 L293.058001,26.904 L293.058001,27.671 L288.534001,27.671 L288.534001,31.194 L293.838001,31.194 Z" id="RENSSELAER-POLYTECHN" sketch:type="MSShapeGroup"></path>
            </g>
        </g>
    </g>
</svg>